<svg xmlns="http://www.w3.org/2000/svg" id="Layer_5" data-name="Layer 5" viewBox="0 0 512 512"><defs><style>.cls-1,.cls-2{stroke:#000;fill:none;stroke-linecap:round;stroke-linejoin:round;stroke-width:10px}.cls-2{stroke:#518df1}</style></defs><g><line x1="373.42" x2="373.42" y1="315.46" y2="345.04" class="cls-2"/><line x1="138.48" x2="138.48" y1="315.46" y2="345.04" class="cls-2"/><line x1="326.65" x2="326.65" y1="324.4" y2="353.29" class="cls-2"/><line x1="185.25" x2="185.25" y1="324.4" y2="353.29" class="cls-2"/><line x1="279.2" x2="279.2" y1="328.53" y2="354.67" class="cls-2"/><line x1="232.7" x2="232.7" y1="328.53" y2="354.67" class="cls-2"/><path d="M409.88,301.24c-39.74,21.77-111.5,26.53-153.93,26.53-42.43,0-114.19-4.76-153.93-26.53" class="cls-2"/></g><g><path d="M356.25,61.14c-8.71,19.72-4.97,70.16,3.21,89.41,31.18,73.36,81.04,168.69,34.39,298.02" class="cls-1"/><path d="M155.64,61.14c8.71,19.72,4.97,70.16-3.21,89.41-31.18,73.36-81.04,168.69-34.39,298.02" class="cls-1"/><line x1="255.95" x2="255.95" y1="392.17" y2="450.26" class="cls-1"/></g></svg>